<?xml version="1.0" standalone="no"?>
<!DOCTYPE svg PUBLIC "-//W3C//DTD SVG 20010904//EN"
 "http://www.w3.org/TR/2001/REC-SVG-20010904/DTD/svg10.dtd">
<svg version="1.0" xmlns="http://www.w3.org/2000/svg"
 width="550.000000pt" height="550.000000pt" viewBox="0 0 550.000000 550.000000"
 preserveAspectRatio="xMidYMid meet">

<g transform="translate(0.000000,550.000000) scale(0.100000,-0.100000)"
fill="#000000" stroke="none">
<path d="M2502 4664 c-348 -63 -634 -274 -786 -579 -25 -49 -52 -117 -61 -150
-36 -140 -44 -374 -24 -673 13 -187 15 -182 -66 -182 -53 0 -125 17 -190 45
-89 38 -216 -6 -257 -89 -54 -112 30 -197 280 -286 215 -76 252 -148 163 -315
-182 -341 -441 -567 -736 -640 -53 -13 -103 -29 -112 -36 -42 -36 -34 -105 19
-156 63 -61 226 -120 423 -154 39 -7 74 -16 79 -20 4 -4 19 -51 32 -104 13
-54 30 -108 39 -121 24 -37 67 -43 176 -23 184 34 329 30 446 -11 29 -10 128
-68 220 -128 209 -135 226 -145 310 -175 110 -39 193 -50 322 -44 198 10 313
55 541 212 77 53 168 109 203 125 110 49 259 62 422 35 127 -21 187 -19 217 5
25 19 29 30 70 196 10 40 12 42 58 48 26 4 103 20 171 37 210 52 319 119 335
205 8 46 -19 85 -67 98 -235 60 -363 126 -505 259 -120 112 -216 240 -295 394
-52 102 -61 153 -36 203 19 38 97 85 189 115 94 31 197 83 246 123 41 34 62
92 51 140 -15 70 -108 132 -197 132 -19 0 -75 -14 -124 -31 -90 -31 -171 -40
-190 -21 -6 6 -9 53 -7 114 2 57 4 218 4 358 0 291 -10 360 -70 485 -161 334
-452 551 -818 610 -113 18 -373 18 -475 -1z m520 -93 c305 -69 554 -269 687
-551 55 -116 66 -188 66 -445 0 -126 -2 -297 -5 -380 l-5 -149 45 -26 c63 -35
137 -33 256 8 106 37 115 38 171 13 118 -54 59 -126 -169 -207 -138 -49 -204
-90 -242 -147 -62 -97 -41 -198 86 -405 181 -297 464 -517 736 -573 36 -8 62
-18 62 -25 0 -43 -160 -110 -357 -148 -71 -14 -137 -28 -146 -31 -22 -9 -51
-77 -72 -172 -21 -96 -14 -92 -140 -67 -48 10 -132 17 -210 17 -209 1 -271
-23 -531 -198 -227 -153 -357 -195 -562 -182 -175 12 -269 50 -493 202 -158
108 -233 146 -324 166 -86 18 -272 15 -393 -5 -57 -10 -107 -14 -112 -10 -4 5
-17 49 -29 98 -12 49 -28 101 -36 117 -17 32 -24 34 -215 74 -172 37 -320 101
-320 138 0 8 25 18 62 26 310 64 637 348 807 700 47 97 59 158 42 219 -25 93
-89 142 -269 207 -126 45 -192 81 -217 119 -20 30 -12 50 30 76 41 25 90 25
154 0 125 -49 251 -48 315 4 l30 23 -12 214 c-25 446 -10 605 75 774 145 291
416 485 753 540 117 20 366 12 482 -14z"/>
</g>
</svg>
